<?xml version="1.0" encoding="UTF-8"?>
<svg width="120px" height="120px" viewBox="0 0 120 120" version="1.1" xmlns="http://www.w3.org/2000/svg" xmlns:xlink="http://www.w3.org/1999/xlink">
    <!-- Generator: Sketch 55.1 (78136) - https://sketchapp.com -->
    <title>100</title>
    <desc>Created with Sketch.</desc>
    <defs>
        <linearGradient x1="50%" y1="0%" x2="50%" y2="100%" id="linearGradient-1">
            <stop stop-color="#FFCA00" offset="0%"></stop>
            <stop stop-color="#FFE000" offset="100%"></stop>
        </linearGradient>
    </defs>
    <g id="首页_正式版" stroke="none" stroke-width="1" fill="none" fill-rule="evenodd">
        <g id="Artboard" transform="translate(-2091.000000, -10818.000000)" fill="url(#linearGradient-1)" fill-rule="nonzero">
            <g id="100" transform="translate(2091.000000, 10818.000000)">
                <path d="M57,3 C57,1.34314575 58.3431458,0 60,0 C61.6568542,0 63,1.34314575 63,3 L63,15 C63,16.6568542 61.6568542,18 60,18 C58.3431458,18 57,16.6568542 57,15 L57,3 Z M17.559,21.801 C16.7658883,21.0508206 16.4428961,19.9290195 16.7156596,18.8719502 C16.9884231,17.814881 17.813881,16.9894231 18.8709502,16.7166596 C19.9280195,16.4438961 21.0498206,16.7668883 21.8,17.56 L30.29,26.05 C31.0698698,26.8032234 31.3826378,27.9186337 31.1080915,28.967522 C30.8335451,30.0164103 30.0144103,30.8355451 28.965522,31.1100915 C27.9166337,31.3846378 26.8012234,31.0718698 26.048,30.292 L17.558,21.802 L17.559,21.801 Z M3,63 C1.34314575,63 0,61.6568542 0,60 C0,58.3431458 1.34314575,57 3,57 L15,57 C16.6568542,57 18,58.3431458 18,60 C18,61.6568542 16.6568542,63 15,63 L3,63 Z M21.801,102.441 C21.0508206,103.234112 19.9290195,103.557104 18.8719502,103.28434 C17.814881,103.011577 16.9894231,102.186119 16.7166596,101.12905 C16.4438961,100.071981 16.7668883,98.9501794 17.56,98.2 L26.05,89.71 C26.8032234,88.9301302 27.9186337,88.6173622 28.967522,88.8919085 C30.0164103,89.1664549 30.8355451,89.9855897 31.1100915,91.034478 C31.3846378,92.0833663 31.0718698,93.1987766 30.292,93.952 L21.802,102.442 L21.801,102.441 Z M63,117 C63,118.656854 61.6568542,120 60,120 C58.3431458,120 57,118.656854 57,117 L57,105 C57,103.343146 58.3431458,102 60,102 C61.6568542,102 63,103.343146 63,105 L63,117 Z M102.441,98.199 C103.22087,98.9522234 103.533638,100.067634 103.259091,101.116522 C102.984545,102.16541 102.16541,102.984545 101.116522,103.259091 C100.067634,103.533638 98.9522234,103.22087 98.199,102.441 L89.709,93.951 C88.9291302,93.1977766 88.6163622,92.0823663 88.8909085,91.033478 C89.1654549,89.9845897 89.9845897,89.1654549 91.033478,88.8909085 C92.0823663,88.6163622 93.1977766,88.9291302 93.951,89.709 L102.441,98.199 L102.441,98.199 Z M117,57 C118.656854,57 120,58.3431458 120,60 C120,61.6568542 118.656854,63 117,63 L105,63 C103.343146,63 102,61.6568542 102,60 C102,58.3431458 103.343146,57 105,57 L117,57 Z M98.199,17.559 C98.9522234,16.7791302 100.067634,16.4663622 101.116522,16.7409085 C102.16541,17.0154549 102.984545,17.8345897 103.259091,18.883478 C103.533638,19.9323663 103.22087,21.0477766 102.441,21.801 L93.951,30.291 C93.1977766,31.0708698 92.0823663,31.3836378 91.033478,31.1090915 C89.9845897,30.8345451 89.1654549,30.0154103 88.8909085,28.966522 C88.6163622,27.9176337 88.9291302,26.8022234 89.709,26.049 L98.199,17.559 L98.199,17.559 Z M60,90 C43.431,90 30,76.569 30,60 C30,43.431 43.431,30 60,30 C76.569,30 90,43.431 90,60 C90,76.569 76.569,90 60,90 Z" id="Shape"></path>
            </g>
        </g>
    </g>
</svg>