<?xml version="1.0" encoding="UTF-8"?>
<svg width="105px" height="79px" viewBox="0 0 105 79" version="1.1" xmlns="http://www.w3.org/2000/svg" xmlns:xlink="http://www.w3.org/1999/xlink">
    <!-- Generator: Sketch 55.1 (78136) - https://sketchapp.com -->
    <title>101</title>
    <desc>Created with Sketch.</desc>
    <g id="首页_正式版" stroke="none" stroke-width="1" fill="none" fill-rule="evenodd">
        <g id="Artboard" transform="translate(-2099.000000, -10679.000000)" fill="#FFFFFF" fill-rule="nonzero">
            <g id="101" transform="translate(2099.000000, 10679.000000)">
                <path d="M96.324,45.36 C100.568,48.844 103.273,54.107 103.273,60 C103.273,70.5 94.685,79 84.106,79 L19.44,79 C8.861,79 0.273,70.5 0.273,60 C0.273,50.527 7.263,42.682 16.398,41.238 C17.678,27.215 28.608,15.982 42.491,14.236 L42.468,14.227 C45.693,5.733 53.886,0 63.16,0 C74.346,0 83.598,8.266 85.07,19 L89.274,19 C97.503,19 104.274,25.207 104.274,33 C104.274,38.386 101.039,43.015 96.324,45.36 L96.324,45.36 Z M84.944,41.018 C85.052,41.006 85.162,41 85.273,41 L89.273,41 C94.299,41 98.273,37.357 98.273,33 C98.273,28.643 94.299,25 89.273,25 L81.273,25 C80.064143,24.9997984 78.9735096,24.2740664 78.5064559,23.1590794 C78.0394022,22.0440924 78.2871883,20.7577137 79.135,19.896 C78.097,12.056 71.344,5.99998306 63.16,5.99998306 C57.3594715,5.9916153 52.0007169,9.09706628 49.124,14.134 C63.367,15.476 74.712,26.777 76.124,41 L84.106,41 C84.386,41 84.666,41.006 84.944,41.018 L84.944,41.018 Z M70.328,44 L70.273,44 C70.273,30.745 59.528,20 46.273,20 C33.955,20 23.804,29.28 22.431,41.23 C31.591,42.654 38.606,50.51 38.606,60 C38.606,61.6568542 37.2628542,63 35.606,63 C33.9491458,63 32.606,61.6568542 32.606,60 C32.606,52.827 26.718,47 19.439,47 C12.161,47 6.273,52.827 6.273,60 C6.273,67.173 12.161,73 19.439,73 L84.106,73 C91.385,73 97.273,67.173 97.273,60 C97.273,52.827 91.385,47 84.106,47 L73.328,47 C71.6711458,47 70.328,45.6568542 70.328,44 Z" id="Shape"></path>
            </g>
        </g>
    </g>
</svg>