<?xml version="1.0" encoding="UTF-8"?>
<svg width="129px" height="105px" viewBox="0 0 129 105" version="1.1" xmlns="http://www.w3.org/2000/svg" xmlns:xlink="http://www.w3.org/1999/xlink">
    <!-- Generator: Sketch 55.1 (78136) - https://sketchapp.com -->
    <title>205</title>
    <desc>Created with Sketch.</desc>
    <g id="首页_正式版" stroke="none" stroke-width="1" fill="none" fill-rule="evenodd">
        <g id="Artboard" transform="translate(-2087.000000, -8955.000000)" fill="#FFFFFF" fill-rule="nonzero">
            <g id="205" transform="translate(2087.000000, 8955.000000)">
                <path d="M3.24299996,6.5 C2.17120322,6.5 1.18082215,5.92820325 0.644923751,5 C0.109025357,4.07179678 0.109025357,2.92820322 0.644923751,2 C1.18082215,1.07179675 2.17120322,0.5 3.24299996,0.5 L125.243,0.5 C126.899854,0.5 128.243,1.84314575 128.243,3.5 C128.243,5.15685425 126.899854,6.5 125.243,6.5 L3.24299996,6.5 Z M20.2430001,26.5 C18.5861458,26.5 17.2430001,25.1568542 17.2430001,23.5 C17.2430001,21.8431458 18.5861458,20.5 20.2430001,20.5 L109.243,20.5 C110.899854,20.5 112.243,21.8431458 112.243,23.5 C112.243,25.1568542 110.899854,26.5 109.243,26.5 L20.2430001,26.5 L20.2430001,26.5 Z M36.243,45.5 C34.5861458,45.5 33.243,44.1568542 33.243,42.5 C33.243,40.8431458 34.5861458,39.5 36.243,39.5 L114.243,39.5 C115.899854,39.5 117.243,40.8431458 117.243,42.5 C117.243,44.1568542 115.899854,45.5 114.243,45.5 L36.243,45.5 Z M47.243,65.5 C45.5861458,65.5 44.243,64.1568542 44.243,62.5 C44.243,60.8431458 45.5861458,59.5 47.243,59.5 L97.243,59.5 C98.8998542,59.5 100.243,60.8431458 100.243,62.5 C100.243,64.1568542 98.8998542,65.5 97.243,65.5 L47.243,65.5 Z M36.243,84.5 C34.5861458,84.5 33.243,83.1568542 33.243,81.5 C33.243,79.8431458 34.5861458,78.5 36.243,78.5 L69.243,78.5 C70.8998542,78.5 72.243,79.8431458 72.243,81.5 C72.243,83.1568542 70.8998542,84.5 69.243,84.5 L36.243,84.5 Z M20.243,104.5 C18.5861458,104.5 17.243,103.156854 17.243,101.5 C17.243,99.8431458 18.5861458,98.5 20.243,98.5 L42.243,98.5 C43.8998542,98.5 45.243,99.8431458 45.243,101.5 C45.243,103.156854 43.8998542,104.5 42.243,104.5 L20.243,104.5 L20.243,104.5 Z" id="200"></path>
            </g>
        </g>
    </g>
</svg>