<?xml version="1.0" encoding="UTF-8"?>
<svg width="101px" height="90px" viewBox="0 0 101 90" version="1.1" xmlns="http://www.w3.org/2000/svg" xmlns:xlink="http://www.w3.org/1999/xlink">
    <!-- Generator: Sketch 55.1 (78136) - https://sketchapp.com -->
    <title>212</title>
    <desc>Created with Sketch.</desc>
    <g id="首页_正式版" stroke="none" stroke-width="1" fill="none" fill-rule="evenodd">
        <g id="Artboard" transform="translate(-2101.000000, -7815.000000)" fill="#FFFFFF" fill-rule="nonzero">
            <g id="212" transform="translate(2101.000000, 7815.000000)">
                <path d="M65.353,80.335 C66.7903211,79.510439 68.6239388,80.0071791 69.4484999,81.4445001 C70.273061,82.8818211 69.776321,84.7154388 68.339,85.54 C63.369,88.39 57.222,90 50.969,90 C43.899,90 37.038,87.98 32.099,84.438 C31.2081902,83.8212564 30.7191472,82.7721037 30.819608,81.6932977 C30.9200689,80.6144917 31.5944223,79.6736772 32.5837927,79.2320203 C33.5731632,78.7903634 34.7238043,78.916497 35.594,79.562 C39.47,82.34 45.105,84 50.97,84 C56.184,84 61.302,82.66 65.354,80.335 L65.353,80.335 Z M74.858,59.753 C76.0989838,58.6550579 77.9950579,58.7710162 79.093,60.012 C80.1909421,61.2529838 80.0749838,63.1490579 78.834,64.247 C72.702,69.673 62.085,73 50.69,73 C39.16,73 28.92,69.906 22.86,64.543 C22.03419,63.8392046 21.6527633,62.7443479 21.8625117,61.6797842 C22.07226,60.6152206 22.8404909,59.746878 23.8715516,59.4089373 C24.9026123,59.0709965 26.0357967,59.3161306 26.835,60.05 C31.671,64.33 40.51,67 50.69,67 C60.723,67 69.93,64.115 74.86,59.753 L74.858,59.753 Z M82.089,42.568 C82.9578699,41.9402843 84.0956212,41.8237877 85.0736738,42.2623933 C86.0517265,42.7009989 86.7214911,43.6280721 86.8306739,44.6943933 C86.9398566,45.7607146 86.47187,46.8042844 85.603,47.432 C78.263,52.734 65.3,56 51.346,56 C37.391,56 24.429,52.734 17.089,47.432 C16.2201301,46.8042844 15.7521434,45.7607146 15.8613262,44.6943933 C15.9705089,43.6280721 16.6402735,42.7009989 17.6183262,42.2623933 C18.5963789,41.8237877 19.7341301,41.9402843 20.603,42.568 C26.789,47.037 38.55,50 51.346,50 C64.143,50 75.904,47.037 82.089,42.568 Z M50.846,40 C23.306,40 0.846,31.877 0.846,20 C0.846,8.124 23.306,0 50.846,0 C78.387,0 100.846,8.124 100.846,20 C100.846,31.877 78.387,40 50.846,40 Z M50.846,34 C75.22,34 94.846,26.901 94.846,20 C94.846,13.099 75.22,6 50.846,6 C26.472,6 6.846,13.099 6.846,20 C6.846,26.901 26.472,34 50.846,34 Z" id="Shape"></path>
            </g>
        </g>
    </g>
</svg>