<?xml version="1.0" encoding="UTF-8"?>
<svg width="126px" height="107px" viewBox="0 0 126 107" version="1.1" xmlns="http://www.w3.org/2000/svg" xmlns:xlink="http://www.w3.org/1999/xlink">
    <!-- Generator: Sketch 55.1 (78136) - https://sketchapp.com -->
    <title>300</title>
    <desc>Created with Sketch.</desc>
    <g id="首页_正式版" stroke="none" stroke-width="1" fill="none" fill-rule="evenodd">
        <g id="Artboard" transform="translate(-2089.000000, -7483.000000)" fill="#FFFFFF" fill-rule="nonzero">
            <g id="300" transform="translate(2089.000000, 7483.000000)">
                <path d="M18.117,54.196 C19.54,37.283 33.72,24 51,24 C54.838,24 58.523,24.655 61.95,25.86 C71.469,16.345 86.721,15.248 97.542,23.62 C108.063,31.761 110.972,46.205 104.855,57.664 C110.377,61.447 114,67.8 114,75 C114,86.598 104.598,96 93,96 C91.3431458,96 90,94.6568542 90,93 C90,91.3431458 91.3431458,90 93,90 C101.284,90 108,83.284 108,75 C108,66.716 101.284,60 93,60 L81,60 C79.3431458,60 78,58.6568542 78,57 C78,42.088 65.912,30 51,30 C37.022,30 25.526,40.621 24.14,54.233 C34.249,55.75 42,64.47 42,75 C42,76.6568542 40.6568542,78 39,78 C37.3431458,78 36,76.6568542 36,75 C36,66.716 29.284,60 21,60 C12.716,60 6,66.716 6,75 C6,83.284 12.716,90 21,90 C22.6568542,90 24,91.3431458 24,93 C24,94.6568542 22.6568542,96 21,96 C9.402,96 0,86.598 0,75 C0,64.38 7.883,55.601 18.117,54.196 Z M99.467,55.014 C104.344,46.075 102.106,34.738 93.871,28.366 C86.058,22.321 75.274,22.623 67.845,28.617 C76.708,33.89 82.892,43.193 83.865,54 L93,54 C95.256,54 97.43,54.356 99.466,55.014 L99.467,55.014 Z M78,3 C78,1.34314575 79.3431458,0 81,0 C82.6568542,0 84,1.34314575 84,3 L84,9 C84,10.6568542 82.6568542,12 81,12 C79.3431458,12 78,10.6568542 78,9 L78,3 Z M123,42 C124.656854,42 126,43.3431458 126,45 C126,46.6568542 124.656854,48 123,48 L117,48 C115.343146,48 114,46.6568542 114,45 C114,43.3431458 115.343146,42 117,42 L123,42 Z M108.579,13.179 C109.332223,12.3991302 110.447634,12.0863622 111.496522,12.3609085 C112.54541,12.6354549 113.364545,13.4545897 113.639091,14.503478 C113.913638,15.5523663 113.60087,16.6677766 112.821,17.421 L108.591,21.651 C107.837777,22.4308698 106.722366,22.7436378 105.673478,22.4690915 C104.62459,22.1945451 103.805455,21.3754103 103.530909,20.326522 C103.256362,19.2776337 103.56913,18.1622234 104.349,17.409 L108.579,13.179 L108.579,13.179 Z M64.959,81.947 L70.318,92.407 C72.842,97.333 70.895,103.373 65.969,105.897 C64.5549554,106.62162 62.9888979,106.999681 61.4,107 C55.864,107 51.376,102.513 51.376,96.977 C51.376,95.387 51.755,93.821 52.479,92.407 L57.839,81.947 C58.5233839,80.6111351 59.8980282,79.7708421 61.399,79.7708421 C62.8999718,79.7708421 64.2746161,80.6111351 64.959,81.947 Z M57.819,95.143 C56.9513405,96.8355363 57.3875449,98.9044523 58.8646725,100.10262 C60.3418,101.300788 62.4562,101.300788 63.9333275,100.10262 C65.4104551,98.9044523 65.8466595,96.8355363 64.979,95.143 L61.399,88.156 L57.819,95.143 Z" id="Shape"></path>
            </g>
        </g>
    </g>
</svg>