<?xml version="1.0" encoding="UTF-8"?>
<svg width="126px" height="128px" viewBox="0 0 126 128" version="1.1" xmlns="http://www.w3.org/2000/svg" xmlns:xlink="http://www.w3.org/1999/xlink">
    <!-- Generator: Sketch 55.1 (78136) - https://sketchapp.com -->
    <title>301</title>
    <desc>Created with Sketch.</desc>
    <g id="首页_正式版" stroke="none" stroke-width="1" fill="none" fill-rule="evenodd">
        <g id="Artboard" transform="translate(-2089.000000, -7137.000000)" fill="#FFFFFF" fill-rule="nonzero">
            <g id="301" transform="translate(2089.000000, 7137.000000)">
                <path d="M18.117,54.196 C19.54,37.283 33.72,24 51,24 C54.838,24 58.523,24.655 61.95,25.86 C71.469,16.345 86.721,15.248 97.542,23.62 C108.063,31.761 110.972,46.205 104.855,57.664 C110.377,61.447 114,67.8 114,75 C114,86.598 104.598,96 93,96 C91.3431458,96 90,94.6568542 90,93 C90,91.3431458 91.3431458,90 93,90 C101.284,90 108,83.284 108,75 C108,66.716 101.284,60 93,60 L81,60 C79.3431458,60 78,58.6568542 78,57 C78,42.088 65.912,30 51,30 C37.022,30 25.526,40.621 24.14,54.233 C34.249,55.75 42,64.47 42,75 C42,76.6568542 40.6568542,78 39,78 C37.3431458,78 36,76.6568542 36,75 C36,66.716 29.284,60 21,60 C12.716,60 6,66.716 6,75 C6,83.284 12.716,90 21,90 C22.6568542,90 24,91.3431458 24,93 C24,94.6568542 22.6568542,96 21,96 C9.402,96 0,86.598 0,75 C0,64.38 7.883,55.601 18.117,54.196 Z M99.467,55.014 C104.344,46.075 102.106,34.738 93.871,28.366 C86.058,22.321 75.274,22.623 67.845,28.617 C76.708,33.89 82.892,43.193 83.865,54 L93,54 C95.256,54 97.43,54.356 99.466,55.014 L99.467,55.014 Z M78,3 C78,1.34314575 79.3431458,0 81,0 C82.6568542,0 84,1.34314575 84,3 L84,9 C84,10.6568542 82.6568542,12 81,12 C79.3431458,12 78,10.6568542 78,9 L78,3 Z M123,42 C124.656854,42 126,43.3431458 126,45 C126,46.6568542 124.656854,48 123,48 L117,48 C115.343146,48 114,46.6568542 114,45 C114,43.3431458 115.343146,42 117,42 L123,42 Z M108.579,13.179 C109.332223,12.3991302 110.447634,12.0863622 111.496522,12.3609085 C112.54541,12.6354549 113.364545,13.4545897 113.639091,14.503478 C113.913638,15.5523663 113.60087,16.6677766 112.821,17.421 L108.591,21.651 C107.837777,22.4308698 106.722366,22.7436378 105.673478,22.4690915 C104.62459,22.1945451 103.805455,21.3754103 103.530909,20.326522 C103.256362,19.2776337 103.56913,18.1622234 104.349,17.409 L108.579,13.179 L108.579,13.179 Z M63.785,86.877 L66.94,92.982 C68.5814349,96.1589618 67.769336,100.051681 64.9945497,102.307331 C62.2197635,104.562981 58.2432365,104.562981 55.4684503,102.307331 C52.693664,100.051681 51.8815651,96.1589618 53.523,92.982 L56.678,86.877 C57.3647782,85.5481132 58.7356375,84.7134743 60.2315,84.7134743 C61.7273625,84.7134743 63.0982218,85.5481132 63.785,86.877 Z M58.853,95.737 C58.5164887,96.3895521 58.6836294,97.1886562 59.2534655,97.6516366 C59.8233017,98.1146169 60.6396983,98.1146169 61.2095345,97.6516366 C61.7793706,97.1886562 61.9465113,96.3895521 61.61,95.737 L60.23,93.07 L58.852,95.737 L58.853,95.737 Z M34.956,99.877 L38.111,105.982 C39.7524349,109.158962 38.940336,113.051681 36.1655497,115.307331 C33.3907635,117.562981 29.4142365,117.562981 26.6394503,115.307331 C23.864664,113.051681 23.0525651,109.158962 24.694,105.982 L27.848,99.877 C28.5345961,98.5475782 29.9057458,97.7125065 31.402,97.7125065 C32.8982542,97.7125065 34.2694039,98.5475782 34.956,99.877 Z M30.024,108.737 C29.6869049,109.389558 29.8537441,110.18909 30.4236835,110.652376 C30.9936229,111.115662 31.8103771,111.115662 32.3803165,110.652376 C32.9502559,110.18909 33.1170951,109.389558 32.78,108.737 L31.402,106.07 L30.024,108.737 L30.024,108.737 Z M52.704,110.877 L55.858,116.982 C57.4994349,120.158962 56.687336,124.051681 53.9125497,126.307331 C51.1377635,128.562981 47.1612365,128.562981 44.3864503,126.307331 C41.611664,124.051681 40.7995651,120.158962 42.441,116.982 L45.596,110.877 C46.2825961,109.547578 47.6537458,108.712506 49.15,108.712506 C50.6462542,108.712506 52.0174039,109.547578 52.704,110.877 L52.704,110.877 Z M47.772,119.737 C47.4349049,120.389558 47.6017441,121.18909 48.1716835,121.652376 C48.7416229,122.115662 49.5583771,122.115662 50.1283165,121.652376 C50.6982559,121.18909 50.8650951,120.389558 50.528,119.737 L49.15,117.07 L47.772,119.737 L47.772,119.737 Z M72.872,110.877 L76.027,116.982 C77.6678515,120.158956 76.8554511,124.051247 74.0807679,126.306592 C71.3060848,128.561936 67.3299152,128.561936 64.5552321,126.306592 C61.7805489,124.051247 60.9681485,120.158956 62.609,116.982 L65.764,110.877 C66.4505961,109.547578 67.8217458,108.712506 69.318,108.712506 C70.8142542,108.712506 72.1854039,109.547578 72.872,110.877 Z M67.94,119.737 C67.6029049,120.389558 67.7697441,121.18909 68.3396835,121.652376 C68.9096229,122.115662 69.7263771,122.115662 70.2963165,121.652376 C70.8662559,121.18909 71.0330951,120.389558 70.696,119.737 L69.318,117.07 L67.94,119.737 L67.94,119.737 Z M92.233,99.877 L95.388,105.982 C97.0294349,109.158962 96.217336,113.051681 93.4425497,115.307331 C90.6677635,117.562981 86.6912365,117.562981 83.9164503,115.307331 C81.141664,113.051681 80.3295651,109.158962 81.971,105.982 L85.126,99.877 C85.8127782,98.5481132 87.1836375,97.7134743 88.6795,97.7134743 C90.1753625,97.7134743 91.5462218,98.5481132 92.233,99.877 L92.233,99.877 Z M87.301,108.737 C86.9639049,109.389558 87.1307441,110.18909 87.7006835,110.652376 C88.2706229,111.115662 89.0873771,111.115662 89.6573165,110.652376 C90.2272559,110.18909 90.3940951,109.389558 90.057,108.737 L88.679,106.07 L87.301,108.737 L87.301,108.737 Z" id="Shape"></path>
            </g>
        </g>
    </g>
</svg>