<?xml version="1.0" encoding="UTF-8"?>
<svg width="126px" height="126px" viewBox="0 0 126 126" version="1.1" xmlns="http://www.w3.org/2000/svg" xmlns:xlink="http://www.w3.org/1999/xlink">
    <!-- Generator: Sketch 55.1 (78136) - https://sketchapp.com -->
    <title>303</title>
    <desc>Created with Sketch.</desc>
    <g id="首页_正式版" stroke="none" stroke-width="1" fill="none" fill-rule="evenodd">
        <g id="Artboard" transform="translate(-2089.000000, -6598.000000)" fill="#FFFFFF" fill-rule="nonzero">
            <g id="303" transform="translate(2089.000000, 6598.000000)">
                <path d="M18.117,54.196 C19.54,37.283 33.72,24 51,24 C54.838,24 58.523,24.655 61.95,25.86 C71.469,16.345 86.721,15.248 97.542,23.62 C108.063,31.761 110.972,46.205 104.855,57.664 C110.377,61.447 114,67.8 114,75 C114,86.598 104.598,96 93,96 C91.3431458,96 90,94.6568542 90,93 C90,91.3431458 91.3431458,90 93,90 C101.284,90 108,83.284 108,75 C108,66.716 101.284,60 93,60 L81,60 C79.3431458,60 78,58.6568542 78,57 C78,42.088 65.912,30 51,30 C37.022,30 25.526,40.621 24.14,54.233 C34.249,55.75 42,64.47 42,75 C42,76.6568542 40.6568542,78 39,78 C37.3431458,78 36,76.6568542 36,75 C36,66.716 29.284,60 21,60 C12.716,60 6,66.716 6,75 C6,83.284 12.716,90 21,90 C22.6568542,90 24,91.3431458 24,93 C24,94.6568542 22.6568542,96 21,96 C9.402,96 0,86.598 0,75 C0,64.38 7.883,55.601 18.117,54.196 Z M99.467,55.014 C104.344,46.075 102.106,34.738 93.871,28.366 C86.058,22.321 75.274,22.623 67.845,28.617 C76.708,33.89 82.892,43.193 83.865,54 L93,54 C95.256,54 97.43,54.356 99.466,55.014 L99.467,55.014 Z M78,3 C78,1.34314575 79.3431458,0 81,0 C82.6568542,0 84,1.34314575 84,3 L84,9 C84,10.6568542 82.6568542,12 81,12 C79.3431458,12 78,10.6568542 78,9 L78,3 Z M123,42 C124.656854,42 126,43.3431458 126,45 C126,46.6568542 124.656854,48 123,48 L117,48 C115.343146,48 114,46.6568542 114,45 C114,43.3431458 115.343146,42 117,42 L123,42 Z M108.579,13.179 C109.332223,12.3991302 110.447634,12.0863622 111.496522,12.3609085 C112.54541,12.6354549 113.364545,13.4545897 113.639091,14.503478 C113.913638,15.5523663 113.60087,16.6677766 112.821,17.421 L108.591,21.651 C107.837777,22.4308698 106.722366,22.7436378 105.673478,22.4690915 C104.62459,22.1945451 103.805455,21.3754103 103.530909,20.326522 C103.256362,19.2776337 103.56913,18.1622234 104.349,17.409 L108.579,13.179 L108.579,13.179 Z M33.089,98.272 C33.3490893,97.2321785 34.14416,96.4100998 35.1747165,96.1154331 C36.205273,95.8207663 37.3147493,96.0982783 38.0852165,96.8434331 C38.8556837,97.5885878 39.1700893,98.6881785 38.91,99.728 L32.91,123.728 C32.6626974,124.781595 31.8671007,125.620326 30.8280175,125.92286 C29.7889343,126.225394 28.6674497,125.94483 27.893225,125.188657 C27.1190003,124.432485 26.8120606,123.31793 27.09,122.272 L33.09,98.272 L33.089,98.272 Z M79.089,98.272 C79.4910633,96.6645752 81.1200752,95.6874367 82.7275,96.0895 C84.3349248,96.4915633 85.3120633,98.1205752 84.91,99.728 L78.91,123.728 C78.6626974,124.781595 77.8671007,125.620326 76.8280175,125.92286 C75.7889343,126.225394 74.6674497,125.94483 73.893225,125.188657 C73.1190003,124.432485 72.8120606,123.31793 73.09,122.272 L79.09,98.272 L79.089,98.272 Z M54.154,110.052 L58.838,96 L51,96 C50.0356009,96.0000179 49.1299942,95.5364054 48.5661364,94.754018 C48.0022787,93.9716307 47.8489284,92.9658753 48.154,92.051 L54.154,74.051 C54.6781182,72.4791976 56.3771976,71.6298818 57.949,72.154 C59.5208024,72.6781182 60.3701182,74.3771976 59.846,75.949 L55.162,90 L63,90 C63.9643991,89.9999821 64.8700058,90.4635946 65.4338636,91.245982 C65.9977213,92.0283693 66.1510716,93.0341247 65.846,93.949 L59.846,111.949 C59.3218817,113.520802 57.6228024,114.370118 56.051,113.846 C54.4791977,113.321882 53.6298818,111.622802 54.154,110.051 L54.154,110.052 Z" id="Shape"></path>
            </g>
        </g>
    </g>
</svg>