<?xml version="1.0" encoding="UTF-8"?>
<svg width="126px" height="126px" viewBox="0 0 126 126" version="1.1" xmlns="http://www.w3.org/2000/svg" xmlns:xlink="http://www.w3.org/1999/xlink">
    <!-- Generator: Sketch 55.1 (78136) - https://sketchapp.com -->
    <title>304</title>
    <desc>Created with Sketch.</desc>
    <g id="首页_正式版" stroke="none" stroke-width="1" fill="none" fill-rule="evenodd">
        <g id="Artboard" transform="translate(-2089.000000, -6412.000000)" fill="#FFFFFF" fill-rule="nonzero">
            <g id="304" transform="translate(2089.000000, 6412.000000)">
                <path d="M65.042,31.347 C72.316,22.819 85.006,21.507 93.871,28.367 C102.736,35.225 104.651,47.837 98.222,57.019 L103.138,60.461 C111.403,48.655 108.94,32.44 97.542,23.621 C86.144,14.801 69.83,16.489 60.478,27.453 L65.042,31.347 Z" id="Path"></path>
                <path d="M78,3 L78,9 C78,10.6568542 79.3431458,12 81,12 C82.6568542,12 84,10.6568542 84,9 L84,3 C84,1.34314575 82.6568542,0 81,0 C79.3431458,0 78,1.34314575 78,3 Z" id="Path"></path>
                <path d="M123,42 L117,42 C115.343146,42 114,43.3431458 114,45 C114,46.6568542 115.343146,48 117,48 L123,48 C124.656854,48 126,46.6568542 126,45 C126,43.3431458 124.656854,42 123,42 Z" id="Path"></path>
                <path d="M108.579,13.179 L104.349,17.409 C103.56913,18.1622234 103.256362,19.2776337 103.530909,20.326522 C103.805455,21.3754103 104.62459,22.1945451 105.673478,22.4690915 C106.722366,22.7436378 107.837777,22.4308698 108.591,21.651 L112.821,17.421 C113.60087,16.6677766 113.913638,15.5523663 113.639091,14.503478 C113.364545,13.4545897 112.54541,12.6354549 111.496522,12.3609085 C110.447634,12.0863622 109.332223,12.3991302 108.579,13.179 L108.579,13.179 Z" id="Path"></path>
                <path d="M24,57 C24,42.088 36.088,30 51,30 C65.912,30 78,42.088 78,57 L84,57 C84,38.775 69.225,24 51,24 C32.775,24 18,38.775 18,57 L24,57 Z" id="Path"></path>
                <path d="M93,96 C104.598,96 114,86.598 114,75 C114,63.402 104.598,54 93,54 L81,54 C79.3431458,54 78,55.3431458 78,57 C78,58.6568542 79.3431458,60 81,60 L93,60 C101.284,60 108,66.716 108,75 C108,83.284 101.284,90 93,90 C91.3431458,90 90,91.3431458 90,93 C90,94.6568542 91.3431458,96 93,96 Z" id="Path"></path>
                <path d="M42,75 C42,63.402 32.598,54 21,54 C9.402,54 0,63.402 0,75 C0,86.598 9.402,96 21,96 C22.6568542,96 24,94.6568542 24,93 C24,91.3431458 22.6568542,90 21,90 C12.716,90 6,83.284 6,75 C6,66.716 12.716,60 21,60 C29.284,60 36,66.716 36,75 C36,76.6568542 37.3431458,78 39,78 C40.6568542,78 42,76.6568542 42,75 Z" id="Path"></path>
                <path d="M54.154,110.051 C53.8149549,111.067778 54.0441089,112.188198 54.7551418,112.990208 C55.4661748,113.792219 56.5510639,114.153976 57.6011419,113.939208 C58.6512199,113.724441 59.506955,112.965778 59.846,111.949 L65.846,93.949 C66.1510716,93.0341247 65.9977213,92.0283693 65.4338636,91.245982 C64.8700058,90.4635946 63.9643991,89.9999821 63,90 L55.162,90 L59.846,75.949 C60.3701182,74.3771976 59.5208024,72.6781182 57.949,72.154 C56.3771976,71.6298818 54.6781182,72.4791976 54.154,74.051 L48.154,92.051 C47.8489284,92.9658753 48.0022787,93.9716307 48.5661364,94.754018 C49.1299942,95.5364054 50.0356009,96.0000179 51,96 L58.838,96 L54.154,110.051 Z" id="Path"></path>
                <path d="M82.457,108.55 C85.74,107.332 89.384,107.17 93.314,108.077 C94.3715589,108.305177 95.2243377,109.085104 95.5457979,110.118138 C95.8672581,111.151172 95.607597,112.277269 94.8662419,113.065233 C94.1248868,113.853198 93.0166928,114.180954 91.966,113.923 C87.16,112.816 83.348,113.861 80.136,117.12 C79.2170811,118.052339 77.799724,118.281193 76.6340713,117.68544 C75.4684187,117.089687 74.8236451,115.806901 75.041,114.516 C74.9716585,114.107434 74.9880042,113.688914 75.089,113.287 L79.089,97.273 C79.3487321,96.2329999 80.1435679,95.4105655 81.1741005,95.1155 C82.204633,94.8204346 83.3143,95.0975654 84.0851005,95.8425 C84.855901,96.5874347 85.1707321,97.6869999 84.911,98.727 L82.457,108.549 L82.457,108.55 Z" id="Combined-Shape"></path>
                <circle id="Oval" cx="8" cy="104" r="5"></circle>
                <circle id="Oval-Copy" cx="102" cy="111" r="5"></circle>
                <path d="M31.547,111.443 L35.09,97.273 C35.5141421,95.6920993 37.1271984,94.7429702 38.7151363,95.1399547 C40.3030743,95.5369392 41.2797103,97.1334913 40.91,98.728 L34.993,122.396 C34.998,122.596 35,122.797 35,123 C35,124.656854 33.6568542,126 32,126 C30.3431458,126 29,124.656854 29,123 C29,115.798 25.439,111.66 17.615,109.96 C16.5676759,109.732243 15.7214154,108.963046 15.3949965,107.942159 C15.0685777,106.921271 15.3115913,105.80379 16.0324965,105.010659 C16.7534018,104.217528 17.8426759,103.869243 18.89,104.097 C24.589,105.336 28.845,107.817 31.547,111.443 L31.547,111.443 Z" id="Combined-Shape"></path>
            </g>
        </g>
    </g>
</svg>