<?xml version="1.0" encoding="UTF-8"?>
<svg width="114px" height="90px" viewBox="0 0 114 90" version="1.1" xmlns="http://www.w3.org/2000/svg" xmlns:xlink="http://www.w3.org/1999/xlink">
    <!-- Generator: Sketch 55.1 (78136) - https://sketchapp.com -->
    <title>306</title>
    <desc>Created with Sketch.</desc>
    <g id="首页_正式版" stroke="none" stroke-width="1" fill="none" fill-rule="evenodd">
        <g id="Artboard" transform="translate(-2095.000000, -6112.000000)" fill="#FFFFFF" fill-rule="nonzero">
            <g id="306" transform="translate(2095.000000, 6112.000000)">
                <path d="M18.117,30.196 C19.54,13.283 33.72,0 51,0 C68.214,0 82.35,13.18 83.865,30 L93,30 C104.598,30 114,39.402 114,51 C114,62.598 104.598,72 93,72 C91.3431458,72 90,70.6568542 90,69 C90,67.3431458 91.3431458,66 93,66 C101.284,66 108,59.284 108,51 C108,42.716 101.284,36 93,36 L81,36 C79.3431458,36 78,34.6568542 78,33 C78,18.088 65.912,6 51,6 C37.022,6 25.526,16.621 24.14,30.233 C34.249,31.75 42,40.47 42,51 C42,52.6568542 40.6568542,54 39,54 C37.3431458,54 36,52.6568542 36,51 C36,42.716 29.284,36 21,36 C12.716,36 6,42.716 6,51 C6,59.284 12.716,66 21,66 C22.6568542,66 24,67.3431458 24,69 C24,70.6568542 22.6568542,72 21,72 C9.402,72 0,62.598 0,51 C0,40.38 7.883,31.601 18.117,30.196 Z M39.317,61.658 C40.0655723,60.1901285 41.8579154,59.6007298 43.3315782,60.3378358 C44.805241,61.0749418 45.4085949,62.8626355 44.683,64.342 L41.683,70.342 C40.9344277,71.8098715 39.1420846,72.3992702 37.6684218,71.6621642 C36.194759,70.9250582 35.5914051,69.1373645 36.317,67.658 L39.317,61.658 Z M39.317,79.658 C40.0655723,78.1901285 41.8579154,77.6007298 43.3315782,78.3378358 C44.805241,79.0749418 45.4085949,80.8626355 44.683,82.342 L41.683,88.342 C40.9344277,89.8098715 39.1420846,90.3992702 37.6684218,89.6621642 C36.194759,88.9250582 35.5914051,87.1373645 36.317,85.658 L39.317,79.658 Z M57.317,61.658 C58.0655723,60.1901285 59.8579154,59.6007298 61.3315782,60.3378358 C62.805241,61.0749418 63.4085949,62.8626355 62.683,64.342 L59.683,70.342 C58.9344277,71.8098715 57.1420846,72.3992702 55.6684218,71.6621642 C54.194759,70.9250582 53.5914051,69.1373645 54.317,67.658 L57.317,61.658 L57.317,61.658 Z M57.317,79.658 C58.0655723,78.1901285 59.8579154,77.6007298 61.3315782,78.3378358 C62.805241,79.0749418 63.4085949,80.8626355 62.683,82.342 L59.683,88.342 C58.9344277,89.8098715 57.1420846,90.3992702 55.6684218,89.6621642 C54.194759,88.9250582 53.5914051,87.1373645 54.317,85.658 L57.317,79.658 L57.317,79.658 Z M75.317,61.658 C76.0655723,60.1901285 77.8579154,59.6007298 79.3315782,60.3378358 C80.805241,61.0749418 81.4085949,62.8626355 80.683,64.342 L77.683,70.342 C76.9344277,71.8098715 75.1420846,72.3992702 73.6684218,71.6621642 C72.194759,70.9250582 71.5914051,69.1373645 72.317,67.658 L75.317,61.658 L75.317,61.658 Z M75.317,79.658 C76.0655723,78.1901285 77.8579154,77.6007298 79.3315782,78.3378358 C80.805241,79.0749418 81.4085949,80.8626355 80.683,82.342 L77.683,88.342 C76.9344277,89.8098715 75.1420846,90.3992702 73.6684218,89.6621642 C72.194759,88.9250582 71.5914051,87.1373645 72.317,85.658 L75.317,79.658 L75.317,79.658 Z" id="Shape"></path>
            </g>
        </g>
    </g>
</svg>