<?xml version="1.0" encoding="UTF-8"?>
<svg width="114px" height="90px" viewBox="0 0 114 90" version="1.1" xmlns="http://www.w3.org/2000/svg" xmlns:xlink="http://www.w3.org/1999/xlink">
    <!-- Generator: Sketch 55.1 (78136) - https://sketchapp.com -->
    <title>308</title>
    <desc>Created with Sketch.</desc>
    <g id="首页_正式版" stroke="none" stroke-width="1" fill="none" fill-rule="evenodd">
        <g id="Artboard" transform="translate(-2095.000000, -5812.000000)" fill="#FFFFFF" fill-rule="nonzero">
            <g id="308" transform="translate(2095.000000, 5812.000000)">
                <path d="M18.117,30.196 C19.54,13.283 33.72,0 51,0 C68.214,0 82.35,13.18 83.865,30 L93,30 C104.598,30 114,39.402 114,51 C114,62.598 104.598,72 93,72 C91.3431458,72 90,70.6568542 90,69 C90,67.3431458 91.3431458,66 93,66 C101.284,66 108,59.284 108,51 C108,42.716 101.284,36 93,36 L81,36 C79.3431458,36 78,34.6568542 78,33 C78,18.088 65.912,6 51,6 C37.022,6 25.526,16.621 24.14,30.233 C34.249,31.75 42,40.47 42,51 C42,52.6568542 40.6568542,54 39,54 C37.3431458,54 36,52.6568542 36,51 C36,42.716 29.284,36 21,36 C12.716,36 6,42.716 6,51 C6,59.284 12.716,66 21,66 C22.6568542,66 24,67.3431458 24,69 C24,70.6568542 22.6568542,72 21,72 C9.402,72 0,62.598 0,51 C0,40.38 7.883,31.601 18.117,30.196 Z M36,63 C36,61.3431458 37.3431458,60 39,60 C40.6568542,60 42,61.3431458 42,63 L42,87 C42,88.6568542 40.6568542,90 39,90 C37.3431458,90 36,88.6568542 36,87 L36,63 Z M54,63 C54,61.3431458 55.3431458,60 57,60 C58.6568542,60 60,61.3431458 60,63 L60,75 C60,76.6568542 58.6568542,78 57,78 C55.3431458,78 54,76.6568542 54,75 L54,63 Z M72,63 C72,61.3431458 73.3431458,60 75,60 C76.6568542,60 78,61.3431458 78,63 L78,87 C78,88.6568542 76.6568542,90 75,90 C73.3431458,90 72,88.6568542 72,87 L72,63 Z" id="Shape"></path>
            </g>
        </g>
    </g>
</svg>