<?xml version="1.0" encoding="UTF-8"?>
<svg width="90px" height="96px" viewBox="0 0 90 96" version="1.1" xmlns="http://www.w3.org/2000/svg" xmlns:xlink="http://www.w3.org/1999/xlink">
    <!-- Generator: Sketch 55.1 (78136) - https://sketchapp.com -->
    <title>399</title>
    <desc>Created with Sketch.</desc>
    <g id="首页_正式版" stroke="none" stroke-width="1" fill="none" fill-rule="evenodd">
        <g id="Artboard" transform="translate(-2106.000000, -4306.000000)" fill="#FFFFFF" fill-rule="nonzero">
            <g id="399" transform="translate(2106.000000, 4306.000000)">
                <path d="M48,12 L48,3 C48,1.34314575 46.6568542,0 45,0 C43.3431458,0 42,1.34314575 42,3 L42,12 C42,13.6568542 43.3431458,15 45,15 C46.6568542,15 48,13.6568542 48,12 Z" id="Path"></path>
                <path d="M60,84 C60,87.3137085 57.3137085,90 54,90 C50.6862915,90 48,87.3137085 48,84 L48,48 C48,46.3431458 46.6568542,45 45,45 C43.3431458,45 42,46.3431458 42,48 L42,84 C42,90.628 47.372,96 54,96 C60.628,96 66,90.628 66,84 C66,82.3431458 64.6568542,81 63,81 C61.3431458,81 60,82.3431458 60,84 Z" id="Path"></path>
                <path d="M27,48 C27,34.413 34.65,21.739 46.548,14.57 C47.9673718,13.7150632 48.4249368,11.8713718 47.57,10.452 C46.7150632,9.03262819 44.8713718,8.57506321 43.452,9.43 C29.805,17.653 21,32.24 21,48 C21,49.6568542 22.3431458,50.9999999 24,50.9999999 C25.6568542,50.9999999 27,49.6568542 27,48 Z" id="Path"></path>
                <path d="M69,48 C69,32.24 60.195,17.653 46.548,9.43 C45.1286282,8.57506321 43.2849368,9.03262819 42.43,10.452 C41.5750632,11.8713718 42.0326282,13.7150632 43.452,14.57 C55.35,21.739 63,34.413 63,48 C63,49.6568542 64.3431458,51 66,51 C67.6568542,51 69,49.6568542 69,48 Z" id="Path"></path>
                <path d="M89.97,47.574 C90.0935471,48.4352335 89.8371153,49.3076826 89.2672053,49.9650939 C88.6972953,50.6225052 87.87005,51 87,51 L3,51 C2.12995,51 1.30270469,50.6225052 0.732794713,49.9650939 C0.162884732,49.3076826 -0.0935471092,48.4352335 0.03,47.574 C3.178,25.632 22.475,9 45,9 C67.525,9 86.822,25.632 89.97,47.574 Z M6.623,45 L83.377,45 C79.249,27.735 63.353,15 45,15 C26.647,15 10.751,27.735 6.623,45 Z" id="Shape"></path>
                <path d="M48,48 L48,12 C48,10.3431458 46.6568542,9 45,9 C43.3431458,9 42,10.3431458 42,12 L42,48 C42,49.6568542 43.3431458,51 45,51 C46.6568542,51 48,49.6568542 48,48 Z" id="Path"></path>
            </g>
        </g>
    </g>
</svg>