<?xml version="1.0" encoding="UTF-8"?>
<svg width="114px" height="89px" viewBox="0 0 114 89" version="1.1" xmlns="http://www.w3.org/2000/svg" xmlns:xlink="http://www.w3.org/1999/xlink">
    <!-- Generator: Sketch 55.1 (78136) - https://sketchapp.com -->
    <title>401</title>
    <desc>Created with Sketch.</desc>
    <g id="首页_正式版" stroke="none" stroke-width="1" fill="none" fill-rule="evenodd">
        <g id="Artboard" transform="translate(-2095.000000, -4007.000000)" fill="#FFFFFF" fill-rule="nonzero">
            <g id="401" transform="translate(2095.000000, 4007.000000)">
                <path d="M18.117,30.196 C19.54,13.283 33.72,0 51,0 C68.214,0 82.35,13.18 83.865,30 L93,30 C104.598,30 114,39.402 114,51 C114,62.598 104.598,72 93,72 C91.3431458,72 90,70.6568542 90,69 C90,67.3431458 91.3431458,66 93,66 C101.284,66 108,59.284 108,51 C108,42.716 101.284,36 93,36 L81,36 C79.3431458,36 78,34.6568542 78,33 C78,18.088 65.912,6 51,6 C37.022,6 25.526,16.621 24.14,30.233 C34.249,31.75 42,40.47 42,51 C42,52.6568542 40.6568542,54 39,54 C37.3431458,54 36,52.6568542 36,51 C36,42.716 29.284,36 21,36 C12.716,36 6,42.716 6,51 C6,59.284 12.716,66 21,66 C22.6568542,66 24,67.3431458 24,69 C24,70.6568542 22.6568542,72 21,72 C9.402,72 0,62.598 0,51 C0,40.38 7.883,31.601 18.117,30.196 Z M65.223,76.198 L60.68,73.606 C59.240746,72.7850287 58.7395288,70.9527541 59.5605001,69.5135001 C60.3814714,68.074246 62.2137459,67.5730288 63.653,68.394 L68.667,71.254 L68.667,66 C68.667,64.3431458 70.0101458,63 71.667,63 C73.3238542,63 74.667,64.3431458 74.667,66 L74.667,70.903 L79.159,68.383 C80.0939641,67.8587127 81.2376104,67.8730487 82.1591385,68.4206077 C83.0806666,68.9681667 83.6400745,69.9657615 83.6266385,71.0376077 C83.6132026,72.109454 83.0289641,73.0927128 82.094,73.617 L77.41,76.243 L82.365,79.071 C83.7789304,79.9035486 84.2616731,81.7175848 83.4485637,83.1427827 C82.6354542,84.5679807 80.8281983,85.0755179 79.392,84.282 L74.667,81.586 L74.667,86 C74.667,87.6568542 73.3238542,89 71.667,89 C70.0101458,89 68.667,87.6568542 68.667,86 L68.667,81.146 L63.054,84.293 C61.6103239,85.0905561 59.7935717,84.5731239 58.9867568,83.1346017 C58.1799418,81.6960796 58.6856911,79.8760405 60.119,79.06 L65.223,76.198 L65.223,76.198 Z M37.719,76.481 L32.679,73.606 C31.2397459,72.7847526 30.7387526,70.9522541 31.56,69.513 C32.3812474,68.0737459 34.2137459,67.5727526 35.653,68.394 L40.667,71.254 L40.667,66 C40.667,64.3431458 42.0101458,63 43.667,63 C45.3238542,63 46.667,64.3431458 46.667,66 L46.667,71.463 L52.159,68.383 C53.0939641,67.8587127 54.2376104,67.8730487 55.1591385,68.4206077 C56.0806666,68.9681667 56.6400745,69.9657615 56.6268752,71.0376077 C56.6132026,72.109454 56.0289641,73.0927128 55.094,73.617 L49.905,76.527 L54.365,79.071 C55.7789304,79.9035486 56.2616731,81.7175848 55.4485637,83.1427827 C54.6354542,84.5679807 52.8281983,85.0755179 51.392,84.282 L46.667,81.586 L46.667,86 C46.667,87.6568542 45.3238542,89 43.667,89 C42.0101458,89 40.667,87.6568542 40.667,86 L40.667,81.707 L36.054,84.293 C34.6103239,85.0905561 32.7935717,84.5731239 31.9867568,83.1346017 C31.1799418,81.6960796 31.6856911,79.8760405 33.119,79.06 L37.719,76.48 L37.719,76.481 Z" id="Shape"></path>
            </g>
        </g>
    </g>
</svg>