<?xml version="1.0" encoding="UTF-8"?>
<svg width="114px" height="116px" viewBox="0 0 114 116" version="1.1" xmlns="http://www.w3.org/2000/svg" xmlns:xlink="http://www.w3.org/1999/xlink">
    <!-- Generator: Sketch 55.1 (78136) - https://sketchapp.com -->
    <title>402</title>
    <desc>Created with Sketch.</desc>
    <g id="首页_正式版" stroke="none" stroke-width="1" fill="none" fill-rule="evenodd">
        <g id="Artboard" transform="translate(-2095.000000, -3831.000000)" fill="#FFFFFF" fill-rule="nonzero">
            <g id="402" transform="translate(2095.000000, 3831.000000)">
                <path d="M18.117,30.196 C19.54,13.283 33.72,0 51,0 C68.214,0 82.35,13.18 83.865,30 L93,30 C104.598,30 114,39.402 114,51 C114,62.598 104.598,72 93,72 C91.3431458,72 90,70.6568542 90,69 C90,67.3431458 91.3431458,66 93,66 C101.284,66 108,59.284 108,51 C108,42.716 101.284,36 93,36 L81,36 C79.3431458,36 78,34.6568542 78,33 C78,18.088 65.912,6 51,6 C37.022,6 25.526,16.621 24.14,30.233 C34.249,31.75 42,40.47 42,51 C42,52.6568542 40.6568542,54 39,54 C37.3431458,54 36,52.6568542 36,51 C36,42.716 29.284,36 21,36 C12.716,36 6,42.716 6,51 C6,59.284 12.716,66 21,66 C22.6568542,66 24,67.3431458 24,69 C24,70.6568542 22.6568542,72 21,72 C9.402,72 0,62.598 0,51 C0,40.38 7.883,31.601 18.117,30.196 Z M69.89,76.198 L65.347,73.606 C64.4159659,73.0749247 63.8389802,72.0874901 63.8333878,71.0156532 C63.8277954,69.9438164 64.394446,68.9504148 65.3198878,68.4096532 C66.2453296,67.8688917 67.3889659,67.8629247 68.32,68.394 L73.333,71.254 L73.333,66 C73.333,64.3431458 74.6761458,63 76.333,63 C77.9898542,63 79.333,64.3431458 79.333,66 L79.333,70.903 L83.826,68.383 C85.2713292,67.5725222 87.1000221,68.0871708 87.9105,69.5325 C88.7209778,70.9778292 88.2063292,72.8065221 86.761,73.617 L82.076,76.243 L87.032,79.071 C87.968304,79.5995168 88.5501831,80.5886808 88.5573059,81.6638298 C88.5642988,82.7389788 87.9954561,83.7356968 87.0661715,84.2764603 C86.1368868,84.8172238 84.98927,84.8193372 84.058,84.282 L79.333,81.586 L79.333,86 C79.333,87.6568542 77.9898542,89 76.333,89 C74.6761458,89 73.333,87.6568542 73.333,86 L73.333,81.146 L67.721,84.293 C66.2773239,85.0905561 64.4605717,84.5731239 63.6537568,83.1346017 C62.8469418,81.6960796 63.3526911,79.8760405 64.786,79.06 L69.89,76.198 L69.89,76.198 Z M50.719,103.48 L45.679,100.605 C44.2397459,99.7837526 43.7387526,97.9512541 44.56,96.512 C45.3812474,95.0727459 47.2137459,94.5717526 48.653,95.393 L53.667,98.253 L53.667,93 C53.667,91.3431458 55.0101458,90 56.667,90 C58.3238542,90 59.667,91.3431458 59.667,93 L59.667,98.463 L65.159,95.383 C66.093964,94.8587127 67.2376104,94.8730487 68.1591385,95.4206077 C69.0806666,95.9681667 69.6400744,96.9657615 69.6268752,98.0376077 C69.6132025,99.109454 69.028964,100.092713 68.094,100.617 L62.905,103.527 L67.365,106.071 C68.7789304,106.903549 69.2616731,108.717585 68.4485637,110.142783 C67.6354542,111.567981 65.8281983,112.075518 64.392,111.282 L59.667,108.586 L59.667,113 C59.667,114.656854 58.3238542,116 56.667,116 C55.0101458,116 53.667,114.656854 53.667,113 L53.667,108.707 L49.054,111.293 C47.6103239,112.090556 45.7935717,111.573124 44.9867568,110.134602 C44.1799418,108.69608 44.6856911,106.87604 46.119,106.06 L50.719,103.48 L50.719,103.48 Z M34.719,76.48 L29.679,73.605 C28.239746,72.7837525 27.7387527,70.9512541 28.5600001,69.5120001 C29.3812475,68.0727461 31.213746,67.5717527 32.653,68.393 L37.667,71.253 L37.667,66 C37.667,64.3431458 39.0101458,63 40.667,63 C42.3238542,63 43.667,64.3431458 43.667,66 L43.667,71.463 L49.159,68.383 C50.0939641,67.8587127 51.2376104,67.8730486 52.1591386,68.4206076 C53.0806667,68.9681666 53.6400746,69.9657614 53.6268753,71.0376077 C53.6132026,72.109454 53.0289641,73.0927128 52.094,73.617 L46.905,76.527 L51.365,79.071 C52.7789304,79.9035486 53.2616731,81.7175848 52.4485637,83.1427827 C51.6354542,84.5679807 49.8281983,85.0755179 48.392,84.282 L43.667,81.586 L43.667,86 C43.667,87.6568542 42.3238542,89 40.667,89 C39.0101458,89 37.667,87.6568542 37.667,86 L37.667,81.707 L33.054,84.293 C31.6103239,85.0905561 29.7935717,84.5731239 28.9867568,83.1346017 C28.1799418,81.6960796 28.6856911,79.8760405 30.119,79.06 L34.719,76.48 L34.719,76.48 Z" id="Shape"></path>
            </g>
        </g>
    </g>
</svg>