<?xml version="1.0" encoding="UTF-8"?>
<svg width="114px" height="104px" viewBox="0 0 114 104" version="1.1" xmlns="http://www.w3.org/2000/svg" xmlns:xlink="http://www.w3.org/1999/xlink">
    <!-- Generator: Sketch 55.1 (78136) - https://sketchapp.com -->
    <title>403</title>
    <desc>Created with Sketch.</desc>
    <g id="首页_正式版" stroke="none" stroke-width="1" fill="none" fill-rule="evenodd">
        <g id="Artboard" transform="translate(-2095.000000, -3667.000000)" fill="#FFFFFF" fill-rule="nonzero">
            <g id="403" transform="translate(2095.000000, 3667.000000)">
                <path d="M18.117,30.196 C19.54,13.283 33.72,0 51,0 C68.214,0 82.35,13.18 83.865,30 L93,30 C104.598,30 114,39.402 114,51 C114,62.598 104.598,72 93,72 C91.3431458,72 90,70.6568542 90,69 C90,67.3431458 91.3431458,66 93,66 C101.284,66 108,59.284 108,51 C108,42.716 101.284,36 93,36 L81,36 C79.3431458,36 78,34.6568542 78,33 C78,18.088 65.912,6 51,6 C37.022,6 25.526,16.621 24.14,30.233 C34.249,31.75 42,40.47 42,51 C42,52.6568542 40.6568542,54 39,54 C37.3431458,54 36,52.6568542 36,51 C36,42.716 29.284,36 21,36 C12.716,36 6,42.716 6,51 C6,59.284 12.716,66 21,66 C22.6568542,66 24,67.3431458 24,69 C24,70.6568542 22.6568542,72 21,72 C9.402,72 0,62.598 0,51 C0,40.38 7.883,31.601 18.117,30.196 Z M86.89,91.198 L82.347,88.606 C81.4159659,88.0749247 80.8389802,87.0874901 80.8333878,86.0156532 C80.8277954,84.9438164 81.394446,83.9504148 82.3198878,83.4096532 C83.2453296,82.8688917 84.3889659,82.8629247 85.32,83.394 L90.333,86.254 L90.333,81 C90.333,79.3431458 91.6761458,78 93.333,78 C94.9898542,78 96.333,79.3431458 96.333,81 L96.333,85.903 L100.826,83.383 C102.271329,82.5725221 104.100022,83.0871708 104.9105,84.5325 C105.720978,85.9778292 105.206329,87.8065221 103.761,88.617 L99.076,91.243 L104.032,94.071 C104.968304,94.5995168 105.550183,95.5886808 105.557306,96.6638298 C105.564299,97.7389788 104.995456,98.7356968 104.066171,99.2764603 C103.136887,99.8172238 101.98927,99.8193372 101.058,99.282 L96.333,96.586 L96.333,101 C96.3329999,102.656854 94.9898542,104 93.333,104 C91.6761458,104 90.3330001,102.656854 90.333,101 L90.333,96.146 L84.721,99.293 C83.2773239,100.090556 81.4605717,99.5731239 80.6537568,98.1346017 C79.8469418,96.6960796 80.3526911,94.8760405 81.786,94.06 L86.89,91.198 L86.89,91.198 Z M51.89,91.198 L47.347,88.606 C45.9077459,87.7850287 45.4065287,85.9527541 46.2275,84.5135 C47.0484713,83.0742459 48.8807459,82.5730287 50.32,83.394 L55.333,86.254 L55.333,81 C55.333,79.3431458 56.6761458,78 58.333,78 C59.9898542,78 61.333,79.3431458 61.333,81 L61.333,85.903 L65.826,83.383 C67.2713292,82.5725222 69.1000221,83.0871708 69.9105,84.5325 C70.7209778,85.9778292 70.2063292,87.8065221 68.761,88.617 L64.076,91.243 L69.032,94.071 C69.968304,94.5995168 70.5501831,95.5886808 70.5573059,96.6638298 C70.5642988,97.7389788 69.9954561,98.7356968 69.0661715,99.2764603 C68.1368868,99.8172238 66.98927,99.8193372 66.058,99.282 L61.333,96.586 L61.333,101 C61.333,102.656854 59.9898542,104 58.333,104 C56.6761458,104 55.333,102.656854 55.333,101 L55.333,96.146 L49.721,99.293 C48.2773239,100.090556 46.4605717,99.5731239 45.6537568,98.1346017 C44.8469418,96.6960796 45.3526911,94.8760405 46.786,94.06 L51.89,91.198 L51.89,91.198 Z M16.89,91.198 L12.347,88.606 C10.9077459,87.7850287 10.4065287,85.9527541 11.2275,84.5135 C12.0484713,83.0742459 13.8807459,82.5730287 15.32,83.394 L20.333,86.254 L20.333,81 C20.333,79.3431458 21.6761458,78 23.333,78 C24.9898542,78 26.333,79.3431458 26.333,81 L26.333,85.903 L30.826,83.383 C32.2713292,82.5725222 34.1000221,83.0871708 34.9105,84.5325 C35.7209778,85.9778292 35.2063292,87.8065221 33.761,88.617 L29.076,91.243 L34.032,94.071 C34.968304,94.5995168 35.5501831,95.5886808 35.5573059,96.6638298 C35.5642988,97.7389788 34.9954561,98.7356968 34.0661715,99.2764603 C33.1368868,99.8172238 31.98927,99.8193372 31.058,99.282 L26.333,96.586 L26.333,101 C26.333,102.656854 24.9898542,104 23.333,104 C21.6761458,104 20.333,102.656854 20.333,101 L20.333,96.146 L14.721,99.293 C13.2773239,100.090556 11.4605717,99.5731239 10.6537568,98.1346017 C9.84694184,96.6960796 10.3526911,94.8760405 11.786,94.06 L16.89,91.198 L16.89,91.198 Z M66.89,67.198 L62.347,64.606 C60.9077459,63.7850287 60.4065287,61.9527541 61.2275,60.5135 C62.0484713,59.0742459 63.8807459,58.5730287 65.32,59.394 L70.333,62.254 L70.333,57 C70.333,55.3431458 71.6761458,54 73.333,54 C74.9898542,54 76.333,55.3431458 76.333,57 L76.333,61.903 L80.826,59.383 C82.2713292,58.5725222 84.1000221,59.0871708 84.9105,60.5325 C85.7209778,61.9778292 85.2063292,63.8065221 83.761,64.617 L79.076,67.243 L84.032,70.071 C84.968304,70.5995168 85.5501831,71.5886808 85.5573059,72.6638298 C85.5642988,73.7389788 84.9954561,74.7356968 84.0661715,75.2764603 C83.1368868,75.8172238 81.98927,75.8193372 81.058,75.282 L76.333,72.586 L76.333,77 C76.333,78.6568542 74.9898542,80 73.333,80 C71.6761458,80 70.333,78.6568542 70.333,77 L70.333,72.146 L64.721,75.293 C63.2773239,76.0905561 61.4605717,75.5731239 60.6537568,74.1346017 C59.8469418,72.6960796 60.3526911,70.8760405 61.786,70.06 L66.89,67.198 L66.89,67.198 Z M36.719,67.481 L31.679,64.606 C30.2397459,63.7847526 29.7387526,61.9522541 30.56,60.513 C31.3812474,59.0737459 33.2137459,58.5727526 34.653,59.394 L39.667,62.254 L39.667,57 C39.667,55.3431458 41.0101458,54 42.667,54 C44.3238542,54 45.667,55.3431458 45.667,57 L45.667,62.463 L51.159,59.383 C52.0939641,58.8587127 53.2376104,58.8730487 54.1591385,59.4206077 C55.0806666,59.9681667 55.6400745,60.9657615 55.6268752,62.0376077 C55.6132026,63.109454 55.0289641,64.0927128 54.094,64.617 L48.905,67.527 L53.365,70.071 C54.7789304,70.9035486 55.2616731,72.7175848 54.4485637,74.1427827 C53.6354542,75.5679807 51.8281983,76.0755179 50.392,75.282 L45.667,72.586 L45.667,77 C45.667,78.6568542 44.3238542,80 42.667,80 C41.0101458,80 39.667,78.6568542 39.667,77 L39.667,72.707 L35.054,75.293 C33.6103239,76.0905561 31.7935717,75.5731239 30.9867568,74.1346017 C30.1799418,72.6960796 30.6856911,70.8760405 32.119,70.06 L36.719,67.48 L36.719,67.481 Z" id="Shape"></path>
            </g>
        </g>
    </g>
</svg>