<?xml version="1.0" encoding="UTF-8"?>
<svg width="114px" height="97px" viewBox="0 0 114 97" version="1.1" xmlns="http://www.w3.org/2000/svg" xmlns:xlink="http://www.w3.org/1999/xlink">
    <!-- Generator: Sketch 55.1 (78136) - https://sketchapp.com -->
    <title>404</title>
    <desc>Created with Sketch.</desc>
    <g id="首页_正式版" stroke="none" stroke-width="1" fill="none" fill-rule="evenodd">
        <g id="Artboard" transform="translate(-2095.000000, -3510.000000)" fill="#FFFFFF" fill-rule="nonzero">
            <g id="404" transform="translate(2095.000000, 3510.000000)">
                <path d="M18.117,30.196 C19.54,13.283 33.72,0 51,0 C68.214,0 82.35,13.18 83.865,30 L93,30 C104.598,30 114,39.402 114,51 C114,62.598 104.598,72 93,72 C91.3431458,72 90,70.6568542 90,69 C90,67.3431458 91.3431458,66 93,66 C101.284,66 108,59.284 108,51 C108,42.716 101.284,36 93,36 L81,36 C79.3431458,36 78,34.6568542 78,33 C78,18.088 65.912,6 51,6 C37.022,6 25.526,16.621 24.14,30.233 C34.249,31.75 42,40.47 42,51 C42,52.6568542 40.6568542,54 39,54 C37.3431458,54 36,52.6568542 36,51 C36,42.716 29.284,36 21,36 C12.716,36 6,42.716 6,51 C6,59.284 12.716,66 21,66 C22.6568542,66 24,67.3431458 24,69 C24,70.6568542 22.6568542,72 21,72 C9.402,72 0,62.598 0,51 C0,40.38 7.883,31.601 18.117,30.196 Z M49.72,69.481 L44.68,66.606 C43.2407459,65.7847526 42.7397526,63.9522541 43.561,62.513 C44.3822474,61.0737459 46.2147459,60.5727526 47.654,61.394 L52.668,64.254 L52.668,59 C52.668,57.3431458 54.0111458,56 55.668,56 C57.3248542,56 58.668,57.3431458 58.668,59 L58.668,64.463 L64.16,61.383 C65.0949641,60.8587127 66.2386104,60.8730487 67.1601385,61.4206077 C68.0816666,61.9681667 68.6410745,62.9657615 68.6278752,64.0376077 C68.6142026,65.109454 68.0299641,66.0927128 67.095,66.617 L61.906,69.527 L66.366,72.071 C67.7799304,72.9035486 68.2626731,74.7175848 67.4495637,76.1427827 C66.6364542,77.5679807 64.8291983,78.0755179 63.393,77.282 L58.668,74.586 L58.668,79 C58.668,80.6568542 57.3248542,82 55.668,82 C54.0111458,82 52.668,80.6568542 52.668,79 L52.668,74.707 L48.055,77.293 C46.6113239,78.0905561 44.7945717,77.5731239 43.9877568,76.1346017 C43.1809418,74.6960796 43.6866911,72.8760405 45.12,72.06 L49.72,69.48 L49.72,69.481 Z M27,75.669 C27,74.0121458 28.3431458,72.669 30,72.669 C31.6568542,72.669 33,74.0121458 33,75.669 L33,84.007 C33,85.6638542 31.6568542,87.007 30,87.007 C28.3431458,87.007 27,85.6638542 27,84.007 L27,75.67 L27,75.669 Z M43,86.549 C43,84.8921458 44.3431458,83.549 46,83.549 C47.6568542,83.549 49,84.8921458 49,86.549 L49,93.649 C49,95.3058542 47.6568542,96.649 46,96.649 C44.3431458,96.649 43,95.3058542 43,93.649 L43,86.549 Z M81,69 C81,67.3431458 82.3431458,66 84,66 C85.6568542,66 87,67.3431458 87,69 L87,75.8 C87,77.4568542 85.6568542,78.8 84,78.8 C82.3431458,78.8 81,77.4568542 81,75.8 L81,69 Z M77.5,82 L77.5,93 C77.5,94.6568542 76.1568542,96 74.5,96 C72.8431458,96 71.5,94.6568542 71.5,93 L71.5,82 C71.5,80.3431458 72.8431458,79 74.5,79 C76.1568542,79 77.5,80.3431458 77.5,82 Z" id="Shape"></path>
            </g>
        </g>
    </g>
</svg>