<svg width="140" height="121" viewBox="0 0 166 143" version="1.1" xmlns="http://www.w3.org/2000/svg"><title>406</title><g class="nc-icon-wrapper" fill="#ffffff"><g transform="translate(12 12)"><g id="&#x9996;&#x9875;_&#x6B63;&#x5F0F;&#x7248;" stroke="none" stroke-width="1" fill="none" fill-rule="evenodd"><g id="Artboard" transform="translate(-336 -3947)" fill="#ffffff" fill-rule="nonzero"><g id="400" transform="translate(336 3947)"><path d="M18.117 30.196C19.54 13.283 33.72 0 51 0c17.214 0 31.35 13.18 32.865 30H93c11.598 0 21 9.402 21 21s-9.402 21-21 21a3 3 0 0 1 0-6c8.284 0 15-6.716 15-15 0-8.284-6.716-15-15-15H81a3 3 0 0 1-3-3C78 18.088 65.912 6 51 6 37.022 6 25.526 16.621 24.14 30.233 34.249 31.75 42 40.47 42 51a3 3 0 0 1-6 0c0-8.284-6.716-15-15-15-8.284 0-15 6.716-15 15 0 8.284 6.716 15 15 15a3 3 0 0 1 0 6C9.402 72 0 62.598 0 51c0-10.62 7.883-19.399 18.117-20.804zM51.283 73l-9.784-5.652a3 3 0 1 1 3.002-5.196l9.779 5.65V58a3 3 0 0 1 6 0v9.802l9.78-5.65a3 3 0 1 1 3 5.196L63.278 73l9.784 5.652a3 3 0 1 1-3.002 5.196l-9.779-5.65V88a3 3 0 0 1-6 0v-9.802l-9.78 5.65a3 3 0 1 1-3-5.196L51.282 73z" id="Shape"/></g></g></g></g></g></svg>