<?xml version="1.0" encoding="UTF-8"?>
<svg width="90px" height="96px" viewBox="0 0 90 96" version="1.1" xmlns="http://www.w3.org/2000/svg" xmlns:xlink="http://www.w3.org/1999/xlink">
    <!-- Generator: Sketch 55.1 (78136) - https://sketchapp.com -->
    <title>499</title>
    <desc>Created with Sketch.</desc>
    <g id="首页_正式版" stroke="none" stroke-width="1" fill="none" fill-rule="evenodd">
        <g id="Artboard" transform="translate(-2106.000000, -3357.000000)" fill="#FFFFFF" fill-rule="nonzero">
            <g id="499" transform="translate(2109.000000, 3360.000000)">
                <path d="M31.8483203,1.97067966 C30.6767475,0.799106781 28.7772525,0.799106781 27.6056797,1.97067966 C26.4341068,3.14225253 26.4341068,5.04174747 27.6056797,6.21332034 L39.8786797,18.4863203 C41.0502525,19.6578932 42.9497475,19.6578932 44.1213203,18.4863203 L56.3943203,6.21332034 C57.5658932,5.04174747 57.5658932,3.14225253 56.3943203,1.97067966 C55.2227475,0.799106781 53.3232525,0.799106781 52.1516797,1.97067966 L42,12.1223593 L31.8483203,1.97067966 Z" id="Path"></path>
                <path d="M52.1516797,88.0293203 C53.3232525,89.2008932 55.2227475,89.2008932 56.3943203,88.0293203 C57.5658932,86.8577475 57.5658932,84.9582525 56.3943203,83.7866797 L44.1213203,71.5136797 C42.9497475,70.3421068 41.0502525,70.3421068 39.8786797,71.5136797 L27.6056797,83.7866797 C26.4341068,84.9582525 26.4341068,86.8577475 27.6056797,88.0293203 C28.7772525,89.2008932 30.6767475,89.2008932 31.8483203,88.0293203 L42,77.8776407 L52.1516797,88.0293203 Z" id="Path"></path>
                <path d="M-0.341795761,32.2773133 C-1.94214395,32.7063257 -2.89169918,34.3514476 -2.46268672,35.9517958 C-2.03367427,37.5521439 -0.388552426,38.5016992 1.21179576,38.0726867 L17.9757958,33.5786867 C19.575955,33.1497249 20.525511,31.5049189 20.0968164,29.9046881 L15.6058164,13.1406881 C15.1770711,11.5402683 13.5321079,10.5904384 11.9316881,11.0191836 C10.3312683,11.4479289 9.38143837,13.0928921 9.81018362,14.6933119 L13.5250013,28.5599794 L-0.341795761,32.2773133 Z" id="Path"></path>
                <path d="M84.3417958,57.7226867 C85.9421439,57.2936743 86.8916992,55.6485524 86.4626867,54.0482042 C86.0336743,52.4478561 84.3885524,51.4983008 82.7882042,51.9273133 L66.0242042,56.4213133 C64.424045,56.8502751 63.474489,58.4950811 63.9031836,60.0953119 L68.3941836,76.8593119 C68.8229289,78.4597317 70.4678921,79.4095616 72.0683119,78.9808164 C73.6687317,78.5520711 74.6185616,76.9071079 74.1898164,75.3066881 L70.4749987,61.4400206 L84.3417958,57.7226867 Z" id="Path"></path>
                <path d="M74.1898164,14.6933119 C74.6185616,13.0928921 73.6687317,11.4479289 72.0683119,11.0191836 C70.4678921,10.5904384 68.8229289,11.5402683 68.3941836,13.1406881 L63.9031836,29.9046881 C63.474489,31.5049189 64.424045,33.1497249 66.0242042,33.5786867 L82.7882042,38.0726867 C84.3885524,38.5016992 86.0336743,37.5521439 86.4626867,35.9517958 C86.8916992,34.3514476 85.9421439,32.7063257 84.3417958,32.2773133 L70.4749987,28.5599794 L74.1898164,14.6933119 Z" id="Path"></path>
                <path d="M13.5250013,61.4400206 L9.81018362,75.3066881 C9.38143837,76.9071079 10.3312683,78.5520711 11.9316881,78.9808164 C13.5321079,79.4095616 15.1770711,78.4597317 15.6058164,76.8593119 L20.0968164,60.0953119 C20.525511,58.4950811 19.575955,56.8502751 17.9757958,56.4213133 L1.21179576,51.9273133 C-0.388552426,51.4983008 -2.03367427,52.4478561 -2.46268672,54.0482042 C-2.89169918,55.6485524 -1.94214395,57.2936743 -0.341795761,57.7226867 L13.5250013,61.4400206 Z" id="Path"></path>
                <path d="M39,0 L39,90 C39,91.6568542 40.3431458,93 42,93 C43.6568542,93 45,91.6568542 45,90 L45,0 C45,-1.65685425 43.6568542,-3 42,-3 C40.3431458,-3 39,-1.65685425 39,0 Z" id="Path"></path>
                <path d="M1.529967,25.0980572 L79.469967,70.0980572 C80.9048343,70.9265025 82.7396118,70.4349003 83.5680572,69.000033 C84.3965025,67.5651657 83.9049003,65.7303882 82.470033,64.9019428 L4.530033,19.9019428 C3.09516565,19.0734975 1.26038819,19.5650997 0.431942842,20.999967 C-0.396502509,22.4348343 0.0950996514,24.2696118 1.529967,25.0980572 Z" id="Path"></path>
                <path d="M79.469967,19.9019428 L1.529967,64.9019428 C0.0950996514,65.7303882 -0.396502509,67.5651657 0.431942842,69.000033 C1.26038819,70.4349003 3.09516565,70.9265025 4.530033,70.0980572 L82.470033,25.0980572 C83.9049003,24.2696118 84.3965025,22.4348343 83.5680572,20.999967 C82.7396118,19.5650997 80.9048343,19.0734975 79.469967,19.9019428 Z" id="Path"></path>
            </g>
        </g>
    </g>
</svg>