<?xml version="1.0" encoding="UTF-8"?>
<svg width="106px" height="52px" viewBox="0 0 106 52" version="1.1" xmlns="http://www.w3.org/2000/svg" xmlns:xlink="http://www.w3.org/1999/xlink">
    <!-- Generator: Sketch 55.1 (78136) - https://sketchapp.com -->
    <title>502</title>
    <desc>Created with Sketch.</desc>
    <g id="首页_正式版" stroke="none" stroke-width="1" fill="none" fill-rule="evenodd">
        <g id="Artboard" transform="translate(-2099.000000, -858.000000)" fill="#FFFFFF" fill-rule="nonzero">
            <g id="502" transform="translate(2099.000000, 857.000000)">
                <path d="M58.55,12.755 C63.3091024,5.42625451 71.4536039,1.00364193 80.192,1.003 C94.446,1.003 106,12.557 106,26.809 C106,35.549 101.577,43.694 94.248,48.453 C82.294,56.216 66.311,52.818 58.549,40.864 L53,32.318 L47.45,40.864 C42.6907043,48.1930431 34.5457509,52.6156967 25.807,52.616 C11.554,52.616 0,41.062 0,26.81 C0,18.07 4.423,9.925 11.752,5.166 C23.706,-2.597 39.69,0.8 47.451,12.755 L53,21.301 L58.55,12.755 Z M42.419,16.023 C36.46,6.848 24.194,4.24 15.019,10.198 C9.39422973,13.8509296 6,20.1021427 6,26.809 C6,37.749 14.868,46.616 25.807,46.616 C32.5144048,46.616 38.7661108,43.2214493 42.419,37.596 L49.423,26.809 L42.419,16.023 Z M56.577,26.809 L63.581,37.596 C69.539,46.771 81.806,49.379 90.981,43.421 C96.6057703,39.7680704 100,33.5168573 100,26.81 C100,15.871 91.132,7.004 80.193,7.004 C73.4855952,7.004 67.2338892,10.3985507 63.581,16.024 L56.577,26.81 L56.577,26.809 Z" id="Combined-Shape"></path>
            </g>
        </g>
    </g>
</svg>