<?xml version="1.0" encoding="UTF-8"?>
<svg width="99px" height="97px" viewBox="0 0 99 97" version="1.1" xmlns="http://www.w3.org/2000/svg" xmlns:xlink="http://www.w3.org/1999/xlink">
    <!-- Generator: Sketch 55.1 (78136) - https://sketchapp.com -->
    <title>503</title>
    <desc>Created with Sketch.</desc>
    <g id="首页_正式版" stroke="none" stroke-width="1" fill="none" fill-rule="evenodd">
        <g id="Artboard" transform="translate(-2101.000000, -700.000000)" fill="#FFFFFF" fill-rule="nonzero">
            <g id="503" transform="translate(2101.000000, 699.000000)">
                <path d="M86.737,2.816 C87.1478529,1.81290933 88.0678679,1.1094665 89.1435811,0.975929743 C90.2192943,0.842392987 91.2833817,1.29953356 91.9270276,2.17172098 C92.5706735,3.0439084 92.6937608,4.19547644 92.249,5.184 C76.762,41.224 46.823,59.341 3,59.341 C1.34314575,59.341 0,57.9978542 0,56.341 C0,54.6841458 1.34314575,53.341 3,53.341 C44.51,53.341 72.234,36.564 86.737,2.816 Z M93.273,33.09 C93.9639082,31.5839195 95.7449195,30.9230918 97.251,31.614 C98.7570805,32.3049082 99.4179082,34.0859195 98.727,35.592 C88.017,58.94 66.697,71.842 35.229,74.246 C34.1523414,74.3423252 33.107113,73.8519858 32.4929409,72.9624551 C31.8787687,72.0729244 31.7906325,70.9217654 32.2622297,69.9491049 C32.7338268,68.9764444 33.6922265,68.3327012 34.771,68.264 C64.195,66.016 83.541,54.308 93.273,33.09 Z M93.336,69.962 C93.8206205,68.9958145 94.7875345,68.3650341 95.8670858,68.3108093 C96.9466371,68.2565844 97.9718919,68.7873 98.5508902,69.7000609 C99.1298885,70.6128217 99.1730982,71.7664852 98.664,72.72 C91.994,85.61 78.794,93.692 59.377,97.032 C57.7509146,97.2987795 56.2140326,96.2040718 55.934718,94.5800926 C55.6554035,92.9561135 56.7382237,91.410833 58.36,91.119 C76.07,88.072 87.625,80.998 93.336,69.962 L93.336,69.962 Z M23.5,20.342 C21.0147186,20.342 19,18.3272814 19,15.842 C19,13.3567186 21.0147186,11.342 23.5,11.342 C25.9852814,11.342 28,13.3567186 28,15.842 C28,18.3272814 25.9852814,20.342 23.5,20.342 Z M56.5,20.342 C54.0147186,20.342 52,18.3272814 52,15.842 C52,13.3567186 54.0147186,11.342 56.5,11.342 C58.9852814,11.342 61,13.3567186 61,15.842 C61,18.3272814 58.9852814,20.342 56.5,20.342 Z M46.5,65.342 C44.0147186,65.342 42,63.3272814 42,60.842 C42,58.3567186 44.0147186,56.342 46.5,56.342 C48.9852814,56.342 51,58.3567186 51,60.842 C51,63.3272814 48.9852814,65.342 46.5,65.342 L46.5,65.342 Z M59.5,88.342 C57.0147186,88.342 55,86.3272814 55,83.842 C55,81.3567186 57.0147186,79.342 59.5,79.342 C61.9852814,79.342 64,81.3567186 64,83.842 C64,86.3272814 61.9852814,88.342 59.5,88.342 Z M23.5,71.342 C21.0147186,71.342 19,69.3272814 19,66.842 C19,64.3567186 21.0147186,62.342 23.5,62.342 C25.9852814,62.342 28,64.3567186 28,66.842 C28,69.3272814 25.9852814,71.342 23.5,71.342 Z M10.5,38.342 C8.01471863,38.342 6,36.3272814 6,33.842 C6,31.3567186 8.01471863,29.342 10.5,29.342 C12.9852813,29.342 15,31.3567187 15,33.842 C15,36.3272813 12.9852813,38.342 10.5,38.342 L10.5,38.342 Z M41.5,33.342 C39.0147186,33.342 37,31.3272814 37,28.842 C37,26.3567186 39.0147186,24.342 41.5,24.342 C43.9852814,24.342 46,26.3567186 46,28.842 C46,31.3272814 43.9852814,33.342 41.5,33.342 Z" id="Shape"></path>
            </g>
        </g>
    </g>
</svg>