<?xml version="1.0" encoding="UTF-8"?>
<svg width="106px" height="86px" viewBox="0 0 106 86" version="1.1" xmlns="http://www.w3.org/2000/svg" xmlns:xlink="http://www.w3.org/1999/xlink">
    <!-- Generator: Sketch 55.1 (78136) - https://sketchapp.com -->
    <title>512</title>
    <desc>Created with Sketch.</desc>
    <g id="首页_正式版" stroke="none" stroke-width="1" fill="none" fill-rule="evenodd">
        <g id="Artboard" transform="translate(-2099.000000, -2018.000000)" fill="#FFFFFF" fill-rule="nonzero">
            <g id="512" transform="translate(2099.000000, 2018.000000)">
                <path d="M53,37.3 L58.55,28.755 C63.3092957,21.4259569 71.4542491,17.0033033 80.193,17.003 C94.446,17.003 106,28.557 106,42.809 C106,51.549 101.577,59.694 94.248,64.453 C82.294,72.216 66.311,68.818 58.549,56.864 L53,48.318 L47.45,56.864 C42.6907043,64.1930431 34.5457509,68.6156967 25.807,68.616 C11.554,68.616 0,57.062 0,42.81 C0,34.0712024 4.42281765,25.9261669 11.752,21.167 C23.706,13.404 39.689,16.802 47.451,28.756 L53,37.301 L53,37.3 Z M42.419,32.023 C36.461,22.848 24.194,20.24 15.019,26.198 C9.39422973,29.8509296 6,36.1021427 6,42.809 C6,53.749 14.868,62.616 25.807,62.616 C32.5144048,62.616 38.7661108,59.2214493 42.419,53.596 L49.423,42.809 L42.419,32.023 L42.419,32.023 Z M56.577,42.809 L63.581,53.596 C69.539,62.771 81.806,65.379 90.981,59.421 C96.6057703,55.7680704 100,49.5168573 100,42.81 C100,31.871 91.132,23.004 80.193,23.004 C73.4855952,23.004 67.2338892,26.3985507 63.581,32.024 L56.577,42.81 L56.577,42.809 Z M24.5,9 C22.0147186,9 20,6.98528137 20,4.5 C20,2.01471863 22.0147186,0 24.5,0 C26.9852814,0 29,2.01471863 29,4.5 C29,6.98528137 26.9852814,9 24.5,9 L24.5,9 Z M52.5,9 C50.0147186,9 48,6.98528137 48,4.5 C48,2.01471863 50.0147186,0 52.5,0 C54.9852814,0 57,2.01471863 57,4.5 C57,6.98528137 54.9852814,9 52.5,9 Z M24.5,86 C22.0147186,86 20,83.9852814 20,81.5 C20,79.0147186 22.0147186,77 24.5,77 C26.9852814,77 29,79.0147186 29,81.5 C29,83.9852814 26.9852814,86 24.5,86 L24.5,86 Z M52.5,86 C50.0147186,86 48,83.9852814 48,81.5 C48,79.0147186 50.0147186,77 52.5,77 C54.9852814,77 57,79.0147186 57,81.5 C57,83.9852814 54.9852814,86 52.5,86 Z M83.5,86 C81.0147186,86 79,83.9852814 79,81.5 C79,79.0147186 81.0147186,77 83.5,77 C85.9852814,77 88,79.0147186 88,81.5 C88,83.9852814 85.9852814,86 83.5,86 L83.5,86 Z M83.5,9 C81.0147186,9 79,6.98528137 79,4.5 C79,2.01471863 81.0147186,0 83.5,0 C85.9852814,0 88,2.01471863 88,4.5 C88,6.98528137 85.9852814,9 83.5,9 L83.5,9 Z" id="Shape"></path>
            </g>
        </g>
    </g>
</svg>