<?xml version="1.0" encoding="UTF-8"?>
<svg width="106px" height="86px" viewBox="0 0 106 86" version="1.1" xmlns="http://www.w3.org/2000/svg" xmlns:xlink="http://www.w3.org/1999/xlink">
    <!-- Generator: Sketch 55.1 (78136) - https://sketchapp.com -->
    <title>513</title>
    <desc>Created with Sketch.</desc>
    <g id="首页_正式版" stroke="none" stroke-width="1" fill="none" fill-rule="evenodd">
        <g id="Artboard" transform="translate(-2099.000000, -1872.000000)" fill="#FFFFFF" fill-rule="nonzero">
            <g id="513" transform="translate(2099.000000, 1872.000000)">
                <path d="M53,37.3 L58.55,28.755 C63.3092957,21.4259569 71.4542491,17.0033033 80.193,17.003 C94.446,17.003 106,28.557 106,42.809 C106,51.549 101.577,59.694 94.248,64.453 C82.294,72.216 66.311,68.818 58.549,56.864 L53,48.318 L47.45,56.864 C42.6907043,64.1930431 34.5457509,68.6156967 25.807,68.616 C11.554,68.616 0,57.062 0,42.81 C0,34.0712024 4.42281765,25.9261669 11.752,21.167 C23.706,13.404 39.689,16.802 47.451,28.756 L53,37.301 L53,37.3 Z M42.419,32.023 C36.461,22.848 24.194,20.24 15.019,26.198 C9.39422973,29.8509296 6,36.1021427 6,42.809 C6,53.749 14.868,62.616 25.807,62.616 C32.5144048,62.616 38.7661108,59.2214493 42.419,53.596 L49.423,42.809 L42.419,32.023 L42.419,32.023 Z M56.577,42.809 L63.581,53.596 C69.539,62.771 81.806,65.379 90.981,59.421 C96.6057703,55.7680704 100,49.5168573 100,42.81 C100,31.871 91.132,23.004 80.193,23.004 C73.4855952,23.004 67.2338892,26.3985507 63.581,32.024 L56.577,42.81 L56.577,42.809 Z M20.5,9 C18.0147186,9 16,6.98528137 16,4.5 C16,2.01471863 18.0147186,0 20.5,0 C22.9852814,0 25,2.01471863 25,4.5 C25,6.98528137 22.9852814,9 20.5,9 Z M43.5,9 C41.0147186,9 39,6.98528137 39,4.5 C39,2.01471863 41.0147186,0 43.5,0 C45.9852814,0 48,2.01471863 48,4.5 C48,6.98528137 45.9852814,9 43.5,9 Z M65.5,9 C63.0147186,9 61,6.98528137 61,4.5 C61,2.01471863 63.0147186,0 65.5,0 C67.9852814,0 70,2.01471863 70,4.5 C70,6.98528137 67.9852814,9 65.5,9 Z M16.5,86 C14.0147186,86 12,83.9852814 12,81.5 C12,79.0147186 14.0147186,77 16.5,77 C18.9852814,77 21,79.0147186 21,81.5 C21,83.9852814 18.9852814,86 16.5,86 Z M39.5,86 C37.0147186,86 35,83.9852814 35,81.5 C35,79.0147186 37.0147186,77 39.5,77 C41.9852814,77 44,79.0147186 44,81.5 C44,83.9852814 41.9852814,86 39.5,86 L39.5,86 Z M65.5,86 C63.0147186,86 61,83.9852814 61,81.5 C61,79.0147186 63.0147186,77 65.5,77 C67.9852814,77 70,79.0147186 70,81.5 C70,83.9852814 67.9852814,86 65.5,86 Z M88.5,86 C86.0147186,86 84,83.9852814 84,81.5 C84,79.0147186 86.0147186,77 88.5,77 C90.9852814,77 93,79.0147186 93,81.5 C93,83.9852814 90.9852814,86 88.5,86 L88.5,86 Z M88.5,9 C86.0147186,9 84,6.98528137 84,4.5 C84,2.01471863 86.0147186,0 88.5,0 C90.9852814,0 93,2.01471863 93,4.5 C93,6.98528137 90.9852814,9 88.5,9 L88.5,9 Z" id="Shape"></path>
            </g>
        </g>
    </g>
</svg>