<?xml version="1.0" encoding="UTF-8"?>
<svg width="114px" height="90px" viewBox="0 0 114 90" version="1.1" xmlns="http://www.w3.org/2000/svg" xmlns:xlink="http://www.w3.org/1999/xlink">
    <!-- Generator: Sketch 55.1 (78136) - https://sketchapp.com -->
    <title>514</title>
    <desc>Created with Sketch.</desc>
    <g id="首页_正式版" stroke="none" stroke-width="1" fill="none" fill-rule="evenodd">
        <g id="Artboard" transform="translate(-2095.000000, -1722.000000)" fill="#FFFFFF" fill-rule="nonzero">
            <g id="514" transform="translate(2095.000000, 1722.000000)">
                <path d="M18.117,30.196 C19.54,13.283 33.72,0 51,0 C68.214,0 82.35,13.18 83.865,30 L93,30 C104.598,30 114,39.402 114,51 C114,62.598 104.598,72 93,72 C91.3431458,72 90,70.6568542 90,69 C90,67.3431458 91.3431458,66 93,66 C101.284,66 108,59.284 108,51 C108,42.716 101.284,36 93,36 L81,36 C79.3431458,36 78,34.6568542 78,33 C78,18.088 65.912,6 51,6 C37.022,6 25.526,16.621 24.14,30.233 C34.249,31.75 42,40.47 42,51 C42,52.6568542 40.6568542,54 39,54 C37.3431458,54 36,52.6568542 36,51 C36,42.716 29.284,36 21,36 C12.716,36 6,42.716 6,51 C6,59.284 12.716,66 21,66 C22.6568542,66 24,67.3431458 24,69 C24,70.6568542 22.6568542,72 21,72 C9.402,72 0,62.598 0,51 C0,40.38 7.883,31.601 18.117,30.196 Z M81,60 C82.6568542,60 84,61.3431458 84,63 C84,64.6568542 82.6568542,66 81,66 L33,66 C31.3431458,66 30,64.6568542 30,63 C30,61.3431458 31.3431458,60 33,60 L81,60 Z M75,72 C76.6568542,72 78,73.3431458 78,75 C78,76.6568542 76.6568542,78 75,78 L33,78 C31.3431458,78 30,76.6568542 30,75 C30,73.3431458 31.3431458,72 33,72 L75,72 Z M21,84 C22.6568542,84 24,85.3431458 24,87 C24,88.6568542 22.6568542,90 21,90 L3,90 C1.34314575,90 0,88.6568542 0,87 C0,85.3431458 1.34314575,84 3,84 L21,84 Z M69,84 C70.6568542,84 72,85.3431458 72,87 C72,88.6568542 70.6568542,90 69,90 L33,90 C31.3431458,90 30,88.6568542 30,87 C30,85.3431458 31.3431458,84 33,84 L69,84 Z" id="Shape"></path>
            </g>
        </g>
    </g>
</svg>