<?xml version="1.0" encoding="UTF-8"?>
<svg width="48px" height="109px" viewBox="0 0 48 109" version="1.1" xmlns="http://www.w3.org/2000/svg" xmlns:xlink="http://www.w3.org/1999/xlink">
    <!-- Generator: Sketch 55.1 (78136) - https://sketchapp.com -->
    <title>900</title>
    <desc>Created with Sketch.</desc>
    <g id="首页_正式版" stroke="none" stroke-width="1" fill="none" fill-rule="evenodd">
        <g id="Artboard" transform="translate(-2128.000000, -1403.000000)" fill-rule="nonzero">
            <g id="900" transform="translate(2127.000000, 1403.000000)">
                <path d="M40,63.93 L40,15 C40,6.716 33.284,0 25,0 C16.716,0 10,6.716 10,15 L10,63.93 C9.9960121,64.7663446 9.64250043,65.5629243 9.025,66.127 C1.601,72.71 -0.991,83.247 2.547,92.567 C6.08452286,101.887305 15.0154385,108.050595 24.9844986,108.050595 C34.9535588,108.050595 43.8848121,101.888341 47.4228457,92.5682296 C50.9608793,83.2481181 48.3689351,72.7112373 40.911,66.096 C40.313135,65.5678749 39.9793032,64.8024777 39.999,64.005 L39.999,63.93 L40,63.93 Z M36.931,70.586 C42.5242312,75.5473987 44.4678803,83.4499674 41.8140587,90.4397416 C39.1602371,97.4295158 32.461611,102.05 24.985,102.05 C17.5083394,102.05 10.8102,97.4278306 8.15689651,90.4378066 C5.50359305,83.4477826 7.44762709,75.5453137 13.041,70.584 C14.9161751,68.8819962 15.9898952,66.4703895 16,63.938 L16,15.0000001 C16.0000001,10.0294373 20.0294373,6.00000013 25,6.00000013 C29.9705627,6.00000013 33.9999999,10.0294373 34,15.0000001 L34,63.897 C33.9482962,66.4489912 35.0199079,68.8949423 36.931,70.587 L36.931,70.586 Z" id="Path" fill="#FFFFFF"></path>
                <path d="M25,96 C31.627,96 37,90.627 37,84 C37,77.373 31.627,72 25,72 C18.373,72 13,77.373 13,84 C13,90.627 18.373,96 25,96 Z M25,90 C21.6862915,90 19,87.3137085 19,84 C19,80.6862915 21.6862915,78 25,78 C28.3137085,78 31,80.6862915 31,84 C31,87.3137085 28.3137085,90 25,90 Z" id="Oval" fill="#FF4545"></path>
                <path d="M21.985,15 L22,75 C22,76.6568542 23.3431458,78 25,78 C26.6568542,78 28,76.6568542 28,75 L27.985,15 C27.985,13.3431458 26.6418542,12 24.985,12 C23.3281458,12 21.985,13.3431458 21.985,15 L21.985,15 Z" id="Path" fill="#FF4747"></path>
            </g>
        </g>
    </g>
</svg>