<?xml version="1.0" encoding="UTF-8"?>
<svg width="106px" height="53px" viewBox="0 0 106 53" version="1.1" xmlns="http://www.w3.org/2000/svg" xmlns:xlink="http://www.w3.org/1999/xlink">
    <!-- Generator: Sketch 55.1 (78136) - https://sketchapp.com -->
    <title>999</title>
    <desc>Created with Sketch.</desc>
    <g id="首页_正式版" stroke="none" stroke-width="1" fill="none" fill-rule="evenodd">
        <g id="Artboard" transform="translate(-2099.000000, -1121.000000)" fill="#FFFFFF" fill-rule="nonzero">
            <g id="999" transform="translate(2099.000000, 1121.000000)">
                <path d="M0,44.9999998 L0,6.99999976 C0,6.44771525 0.44771525,5.99999976 1,5.99999976 L6.052,5.99999976 C6.3608077,5.99999976 6.6523921,6.1422561 6.842,6.386 L28.057,33.657 L28.057,6.99999976 C28.057,6.44771525 28.5047153,5.99999976 29.057,5.99999976 L34,5.99999976 C34.5522847,5.99999976 35,6.44771525 35,6.99999976 L35,44.9999998 C35,45.5522847 34.5522847,45.9999998 34,45.9999998 L29.58,45.9999998 C29.2711923,45.9999998 28.9796079,45.8577439 28.79,45.614 L6.943,17.543 L6.943,44.9999998 C6.943,45.5522847 6.49528475,45.9999998 5.943,45.9999998 L1,45.9999998 C0.44771525,45.9999998 0,45.5522847 0,44.9999998 Z M39.327,50.291 L62.641,2.709 C63.4531307,1.05124872 65.1380056,-7.24902293e-07 66.984,-7.24902293e-07 C67.6335237,-0.000569264395 68.237332,0.334176629 68.5809753,0.885348716 C68.9246186,1.4365208 68.9594127,2.12603417 68.673,2.709 L45.359,50.291 C44.5468693,51.9487513 42.8619944,52.9999993 41.016,52.9999993 C40.3664763,53.0005693 39.762668,52.6658234 39.4190247,52.1146513 C39.0753814,51.5634792 39.0405873,50.8739658 39.327,50.291 L39.327,50.291 Z M64.622,44.595 L81.457,6.595 C81.6171878,6.23336438 81.9754745,6 82.371,6 L87.629,6 C88.0245255,6 88.3828122,6.23336438 88.543,6.595 L105.378,44.595 C105.515055,44.9044118 105.486326,45.2621478 105.30165,45.5457221 C105.116973,45.8292964 104.801408,46 104.463,46 L99.181,46 C98.7802008,46 98.4181133,45.7607213 98.261,45.392 L94.695,37.019 C94.5378867,36.6502787 94.1757992,36.4109861 93.775,36.411 L76.049,36.411 C75.6498856,36.4111 75.2890493,36.648513 75.131,37.015 L71.51,45.397 C71.3516464,45.7630955 70.9908756,46 70.592,46 L65.537,46 C65.1985924,46 64.8830267,45.8292964 64.6983502,45.5457221 C64.5136737,45.2621478 64.4849448,44.9044118 64.622,44.595 L64.622,44.595 Z M78,30 L92,30 L84.971,14 L78,30 Z"></path>
            </g>
        </g>
    </g>
</svg>